<?xml version="1.0" standalone="no"?>
<!DOCTYPE svg PUBLIC "-//W3C//DTD SVG 20010904//EN"
 "http://www.w3.org/TR/2001/REC-SVG-20010904/DTD/svg10.dtd">
<svg version="1.0" xmlns="http://www.w3.org/2000/svg"
 width="100.000000pt" height="100.000000pt" viewBox="0 0 100.000000 100.000000"
 preserveAspectRatio="xMidYMid meet">

<g transform="translate(0.000000,100.000000) scale(0.100000,-0.100000)"
fill="#000000" stroke="none">
<path d="M647 938 c-13 -18 -54 -75 -91 -125 l-66 -93 53 0 53 0 55 80 c30 44
57 80 60 80 3 0 32 -36 64 -80 l59 -80 53 0 54 0 -94 123 c-91 117 -96 122
-135 125 -35 3 -43 -1 -65 -30z"/>
<path d="M292 730 l4 -99 -21 18 c-29 28 -93 42 -139 31 -91 -21 -131 -83
-131 -205 0 -66 5 -88 25 -122 50 -89 174 -110 246 -42 21 19 21 19 32 -6 10
-21 18 -25 57 -25 l45 0 0 275 0 275 -61 0 -61 0 4 -100z m-17 -161 c16 -16
20 -33 20 -95 0 -68 -2 -78 -24 -95 -36 -30 -98 -22 -125 14 -25 34 -29 119
-7 159 26 50 95 59 136 17z"/>
<path d="M670 681 c-78 -16 -125 -56 -145 -125 -53 -177 54 -300 249 -283 33
3 73 10 89 16 23 9 27 16 27 52 0 35 -3 40 -17 34 -41 -16 -124 -27 -156 -21
-37 7 -71 37 -82 74 l-6 22 147 0 147 0 -7 61 c-7 75 -35 123 -85 148 -43 22
-113 32 -161 22z m104 -92 c15 -12 26 -30 26 -45 0 -23 -2 -24 -80 -24 -74 0
-80 2 -80 20 0 31 44 70 78 70 16 0 41 -9 56 -21z"/>
</g>
</svg>
